<?xml version="1.0" encoding="UTF-8" standalone="no"?>
<!DOCTYPE svg PUBLIC "-//W3C//DTD SVG 1.1//EN"
 "http://www.w3.org/Graphics/SVG/1.1/DTD/svg11.dtd">
<!-- Generated by graphviz version 12.2.1 (20241206.2353)
 -->
<!-- Pages: 1 -->
<svg width="253pt" height="116pt"
 viewBox="0.00 0.00 252.60 116.00" xmlns="http://www.w3.org/2000/svg" xmlns:xlink="http://www.w3.org/1999/xlink">
<g id="graph0" class="graph" transform="scale(1 1) rotate(0) translate(4 112)">
<polygon fill="white" stroke="none" points="-4,4 -4,-112 248.6,-112 248.6,4 -4,4"/>
<!-- root -->
<g id="node1" class="node">
<title>root</title>
<ellipse fill="#dde9ff" stroke="black" cx="120.53" cy="-90" rx="79.5" ry="18"/>
<text text-anchor="middle" x="120.53" y="-84.95" font-family="Times,serif" font-size="14.00">Corporate Finance</text>
</g>
<!-- C -->
<g id="node2" class="node">
<title>C</title>
<ellipse fill="#dde9ff" stroke="black" cx="37.53" cy="-18" rx="37.53" ry="18"/>
<text text-anchor="middle" x="37.53" y="-12.95" font-family="Times,serif" font-size="14.00">Capital</text>
</g>
<!-- root&#45;&gt;C -->
<g id="edge1" class="edge">
<title>root&#45;&gt;C</title>
<path fill="none" stroke="black" d="M100.86,-72.41C89.86,-63.13 76,-51.44 64.05,-41.36"/>
<polygon fill="black" stroke="black" points="66.42,-38.79 56.52,-35.01 61.91,-44.14 66.42,-38.79"/>
</g>
<!-- R -->
<g id="node3" class="node">
<title>R</title>
<ellipse fill="#dde9ff" stroke="black" cx="120.53" cy="-18" rx="27.81" ry="18"/>
<text text-anchor="middle" x="120.53" y="-12.95" font-family="Times,serif" font-size="14.00">Risk</text>
</g>
<!-- root&#45;&gt;R -->
<g id="edge2" class="edge">
<title>root&#45;&gt;R</title>
<path fill="none" stroke="black" d="M120.53,-71.7C120.53,-64.41 120.53,-55.73 120.53,-47.54"/>
<polygon fill="black" stroke="black" points="124.03,-47.62 120.53,-37.62 117.03,-47.62 124.03,-47.62"/>
</g>
<!-- G -->
<g id="node4" class="node">
<title>G</title>
<ellipse fill="#dde9ff" stroke="black" cx="205.53" cy="-18" rx="39.07" ry="18"/>
<text text-anchor="middle" x="205.53" y="-12.95" font-family="Times,serif" font-size="14.00">Growth</text>
</g>
<!-- root&#45;&gt;G -->
<g id="edge3" class="edge">
<title>root&#45;&gt;G</title>
<path fill="none" stroke="black" d="M140.68,-72.41C151.87,-63.2 165.94,-51.6 178.12,-41.57"/>
<polygon fill="black" stroke="black" points="180.32,-44.29 185.82,-35.24 175.87,-38.89 180.32,-44.29"/>
</g>
</g>
</svg>
