<?xml version="1.0" encoding="UTF-8" standalone="no"?>
<!DOCTYPE svg PUBLIC "-//W3C//DTD SVG 1.1//EN"
 "http://www.w3.org/Graphics/SVG/1.1/DTD/svg11.dtd">
<!-- Generated by graphviz version 12.2.1 (20241206.2353)
 -->
<!-- Pages: 1 -->
<svg width="313pt" height="116pt"
 viewBox="0.00 0.00 312.51 116.00" xmlns="http://www.w3.org/2000/svg" xmlns:xlink="http://www.w3.org/1999/xlink">
<g id="graph0" class="graph" transform="scale(1 1) rotate(0) translate(4 112)">
<polygon fill="white" stroke="none" points="-4,4 -4,-112 308.51,-112 308.51,4 -4,4"/>
<!-- root -->
<g id="node1" class="node">
<title>root</title>
<ellipse fill="#fff7cc" stroke="black" cx="156.3" cy="-90" rx="74.38" ry="18"/>
<text text-anchor="middle" x="156.3" y="-84.95" font-family="Times,serif" font-size="14.00">Personal Finance</text>
</g>
<!-- B -->
<g id="node2" class="node">
<title>B</title>
<ellipse fill="#fff7cc" stroke="black" cx="49.3" cy="-18" rx="49.3" ry="18"/>
<text text-anchor="middle" x="49.3" y="-12.95" font-family="Times,serif" font-size="14.00">Budgeting</text>
</g>
<!-- root&#45;&gt;B -->
<g id="edge1" class="edge">
<title>root&#45;&gt;B</title>
<path fill="none" stroke="black" d="M131.22,-72.59C116.49,-62.95 97.7,-50.66 81.84,-40.29"/>
<polygon fill="black" stroke="black" points="83.96,-37.49 73.67,-34.94 80.13,-43.35 83.96,-37.49"/>
</g>
<!-- S -->
<g id="node3" class="node">
<title>S</title>
<ellipse fill="#fff7cc" stroke="black" cx="156.3" cy="-18" rx="40.09" ry="18"/>
<text text-anchor="middle" x="156.3" y="-12.95" font-family="Times,serif" font-size="14.00">Savings</text>
</g>
<!-- root&#45;&gt;S -->
<g id="edge2" class="edge">
<title>root&#45;&gt;S</title>
<path fill="none" stroke="black" d="M156.3,-71.7C156.3,-64.41 156.3,-55.73 156.3,-47.54"/>
<polygon fill="black" stroke="black" points="159.8,-47.62 156.3,-37.62 152.8,-47.62 159.8,-47.62"/>
</g>
<!-- I -->
<g id="node4" class="node">
<title>I</title>
<ellipse fill="#fff7cc" stroke="black" cx="259.3" cy="-18" rx="45.21" ry="18"/>
<text text-anchor="middle" x="259.3" y="-12.95" font-family="Times,serif" font-size="14.00">Investing</text>
</g>
<!-- root&#45;&gt;I -->
<g id="edge3" class="edge">
<title>root&#45;&gt;I</title>
<path fill="none" stroke="black" d="M180.45,-72.59C194.5,-63.04 212.37,-50.9 227.55,-40.58"/>
<polygon fill="black" stroke="black" points="229.51,-43.48 235.81,-34.96 225.58,-37.69 229.51,-43.48"/>
</g>
</g>
</svg>
