<?xml version="1.0" encoding="UTF-8" standalone="no"?>
<!DOCTYPE svg PUBLIC "-//W3C//DTD SVG 1.1//EN"
 "http://www.w3.org/Graphics/SVG/1.1/DTD/svg11.dtd">
<!-- Generated by graphviz version 12.2.1 (20241206.2353)
 -->
<!-- Pages: 1 -->
<svg width="291pt" height="116pt"
 viewBox="0.00 0.00 291.14 116.00" xmlns="http://www.w3.org/2000/svg" xmlns:xlink="http://www.w3.org/1999/xlink">
<g id="graph0" class="graph" transform="scale(1 1) rotate(0) translate(4 112)">
<polygon fill="white" stroke="none" points="-4,4 -4,-112 287.14,-112 287.14,4 -4,4"/>
<!-- root -->
<g id="node1" class="node">
<title>root</title>
<ellipse fill="#e8f7e8" stroke="black" cx="150.67" cy="-90" rx="66.19" ry="18"/>
<text text-anchor="middle" x="150.67" y="-84.95" font-family="Times,serif" font-size="14.00">Public Finance</text>
</g>
<!-- T -->
<g id="node2" class="node">
<title>T</title>
<ellipse fill="#e8f7e8" stroke="black" cx="43.67" cy="-18" rx="43.67" ry="18"/>
<text text-anchor="middle" x="43.67" y="-12.95" font-family="Times,serif" font-size="14.00">Taxation</text>
</g>
<!-- root&#45;&gt;T -->
<g id="edge1" class="edge">
<title>root&#45;&gt;T</title>
<path fill="none" stroke="black" d="M126.13,-72.94C111.21,-63.18 91.99,-50.61 75.86,-40.06"/>
<polygon fill="black" stroke="black" points="77.83,-37.16 67.55,-34.62 74,-43.02 77.83,-37.16"/>
</g>
<!-- S -->
<g id="node3" class="node">
<title>S</title>
<ellipse fill="#e8f7e8" stroke="black" cx="150.67" cy="-18" rx="45.72" ry="18"/>
<text text-anchor="middle" x="150.67" y="-12.95" font-family="Times,serif" font-size="14.00">Spending</text>
</g>
<!-- root&#45;&gt;S -->
<g id="edge2" class="edge">
<title>root&#45;&gt;S</title>
<path fill="none" stroke="black" d="M150.67,-71.7C150.67,-64.41 150.67,-55.73 150.67,-47.54"/>
<polygon fill="black" stroke="black" points="154.17,-47.62 150.67,-37.62 147.17,-47.62 154.17,-47.62"/>
</g>
<!-- P -->
<g id="node4" class="node">
<title>P</title>
<ellipse fill="#e8f7e8" stroke="black" cx="248.67" cy="-18" rx="34.46" ry="18"/>
<text text-anchor="middle" x="248.67" y="-12.95" font-family="Times,serif" font-size="14.00">Policy</text>
</g>
<!-- root&#45;&gt;P -->
<g id="edge3" class="edge">
<title>root&#45;&gt;P</title>
<path fill="none" stroke="black" d="M173.4,-72.76C187.23,-62.89 205.01,-50.19 219.82,-39.61"/>
<polygon fill="black" stroke="black" points="221.71,-42.56 227.82,-33.9 217.65,-36.86 221.71,-42.56"/>
</g>
</g>
</svg>
